<?xml version="1.0" encoding="us-ascii" standalone="no"?><svg xmlns="http://www.w3.org/2000/svg" xmlns:xlink="http://www.w3.org/1999/xlink" contentStyleType="text/css" height="1054px" preserveAspectRatio="none" style="width:905px;height:1054px;background:#FFFFFF;" version="1.1" viewBox="0 0 905 1054" width="905px" zoomAndPan="magnify"><defs/><g><!--cluster com--><g id="cluster_com"><path d="M8.5,6.0137 L38.5,6.0137 A3.75,3.75 0 0 1 41,8.5137 L48,30.6348 L895.5,30.6348 A2.5,2.5 0 0 1 898,33.1348 L898,1044.5137 A2.5,2.5 0 0 1 895.5,1047.0137 L8.5,1047.0137 A2.5,2.5 0 0 1 6,1044.5137 L6,8.5137 A2.5,2.5 0 0 1 8.5,6.0137 " fill="none" style="stroke:#000000;stroke-width:1.5;"/><line style="stroke:#000000;stroke-width:1.5;" x1="6" x2="48" y1="30.6348" y2="30.6348"/><text fill="#000000" font-family="sans-serif" font-size="14" font-weight="bold" lengthAdjust="spacing" textLength="29" x="10" y="23.1211">com</text></g><!--cluster ggFROOK--><g id="cluster_ggFROOK"><path d="M32.5,51.0137 L102.5,51.0137 A3.75,3.75 0 0 1 105,53.5137 L112,75.6348 L871.5,75.6348 A2.5,2.5 0 0 1 874,78.1348 L874,1020.5137 A2.5,2.5 0 0 1 871.5,1023.0137 L32.5,1023.0137 A2.5,2.5 0 0 1 30,1020.5137 L30,53.5137 A2.5,2.5 0 0 1 32.5,51.0137 " fill="none" style="stroke:#000000;stroke-width:1.5;"/><line style="stroke:#000000;stroke-width:1.5;" x1="30" x2="112" y1="75.6348" y2="75.6348"/><text fill="#000000" font-family="sans-serif" font-size="14" font-weight="bold" lengthAdjust="spacing" textLength="69" x="34" y="68.1211">ggFROOK</text></g><!--class RubikFROOK--><g id="elem_RubikFROOK"><rect codeLine="1" fill="#F1F1F1" height="774.2227" id="RubikFROOK" rx="2.5" ry="2.5" style="stroke:#181818;stroke-width:0.5;" width="438" x="420" y="88.0137"/><ellipse cx="591.75" cy="104.0137" fill="#ADD1B2" rx="11" ry="11" style="stroke:#181818;stroke-width:1.0;"/><path d="M594.5156,99.8887 Q594.6719,99.6699 594.8594,99.5605 Q595.0469,99.4512 595.2656,99.4512 Q595.6406,99.4512 595.875,99.7168 Q596.1094,99.9668 596.1094,100.5762 L596.1094,102.0293 Q596.1094,102.6387 595.875,102.9043 Q595.6406,103.1699 595.2656,103.1699 Q594.9219,103.1699 594.7188,102.9668 Q594.5156,102.7793 594.4063,102.2637 Q594.3594,101.9043 594.1719,101.7168 Q593.8438,101.3418 593.2344,101.123 Q592.625,100.9043 592,100.9043 Q591.2344,100.9043 590.5938,101.2324 Q589.9688,101.5605 589.4688,102.3105 Q588.9844,103.0605 588.9844,104.0918 L588.9844,105.1855 Q588.9844,106.4199 589.875,107.248 Q590.7656,108.0605 592.3594,108.0605 Q593.2969,108.0605 593.9531,107.8105 Q594.3438,107.6543 594.7656,107.2168 Q595.0313,106.9512 595.1719,106.873 Q595.3281,106.7949 595.5313,106.7949 Q595.8594,106.7949 596.1094,107.0605 Q596.375,107.3105 596.375,107.6543 Q596.375,107.998 596.0313,108.4043 Q595.5313,108.9824 594.7344,109.3105 Q593.6563,109.7637 592.3594,109.7637 Q590.8438,109.7637 589.6406,109.1387 Q588.6563,108.6387 587.9688,107.5762 Q587.2813,106.498 587.2813,105.2168 L587.2813,104.0605 Q587.2813,102.7324 587.8906,101.5918 Q588.5156,100.4355 589.6094,99.8262 Q590.7031,99.2012 591.9375,99.2012 Q592.6719,99.2012 593.3125,99.373 Q593.9688,99.5293 594.5156,99.8887 Z " fill="#000000"/><text fill="#000000" font-family="sans-serif" font-size="14" lengthAdjust="spacing" textLength="86" x="612.25" y="109.8105">RubikFROOK</text><line style="stroke:#181818;stroke-width:0.5;" x1="421" x2="857" y1="120.0137" y2="120.0137"/><rect fill="none" height="6" style="stroke:#C82930;stroke-width:1.0;" width="6" x="428" y="131.8242"/><text fill="#000000" font-family="sans-serif" font-size="14" lengthAdjust="spacing" textLength="177" x="440" y="139.1211">ArrayList&lt;Notation&gt; solution</text><rect fill="none" height="6" style="stroke:#C82930;stroke-width:1.0;" width="6" x="428" y="150.4453"/><text fill="#000000" font-family="sans-serif" font-size="14" lengthAdjust="spacing" textLength="96" x="440" y="157.7422">int[][] directions</text><rect fill="none" height="6" style="stroke:#C82930;stroke-width:1.0;" width="6" x="428" y="169.0664"/><text fill="#000000" font-family="sans-serif" font-size="14" lengthAdjust="spacing" textLength="160" x="440" y="176.3633">Notation[] faceToNotation</text><rect fill="none" height="6" style="stroke:#C82930;stroke-width:1.0;" width="6" x="428" y="187.6875"/><text fill="#000000" font-family="sans-serif" font-size="14" lengthAdjust="spacing" textLength="66" x="440" y="194.9844">int[][] rubik</text><rect fill="none" height="6" style="stroke:#C82930;stroke-width:1.0;" width="6" x="428" y="206.3086"/><text fill="#000000" font-family="sans-serif" font-size="14" lengthAdjust="spacing" textLength="160" x="440" y="213.6055">boolean detailPrintOption</text><ellipse cx="431" cy="227.9297" fill="none" rx="3" ry="3" style="stroke:#038048;stroke-width:1.0;"/><text fill="#000000" font-family="sans-serif" font-size="14" lengthAdjust="spacing" textLength="173" x="440" y="232.2266">boolean countMovesOption</text><rect fill="none" height="6" style="stroke:#C82930;stroke-width:1.0;" width="6" x="428" y="243.5508"/><text fill="#000000" font-family="sans-serif" font-size="14" lengthAdjust="spacing" textLength="412" x="440" y="250.8477">Map&lt;Notation,Map.Entry&lt;Integer,Integer&gt;&gt; faceAndDirOfNotation</text><line style="stroke:#181818;stroke-width:0.5;" x1="421" x2="857" y1="258.3613" y2="258.3613"/><ellipse cx="431" cy="273.1719" fill="#84BE84" rx="3" ry="3" style="stroke:#038048;stroke-width:1.0;"/><text fill="#000000" font-family="sans-serif" font-size="14" lengthAdjust="spacing" textLength="101" x="440" y="277.4688">int[][] getRubik()</text><ellipse cx="431" cy="291.793" fill="#84BE84" rx="3" ry="3" style="stroke:#038048;stroke-width:1.0;"/><text fill="#000000" font-family="sans-serif" font-size="14" lengthAdjust="spacing" textLength="94" x="440" y="296.0898">void initRubik()</text><rect fill="#F24D5C" height="6" style="stroke:#C82930;stroke-width:1.0;" width="6" x="428" y="307.4141"/><text fill="#000000" font-family="sans-serif" font-size="14" lengthAdjust="spacing" textLength="127" x="440" y="314.7109">int findIndex(int[],int)</text><rect fill="#F24D5C" height="6" style="stroke:#C82930;stroke-width:1.0;" width="6" x="428" y="326.0352"/><text fill="#000000" font-family="sans-serif" font-size="14" lengthAdjust="spacing" textLength="166" x="440" y="333.332">int[][] createClonedRubik()</text><rect fill="#F24D5C" height="6" style="stroke:#C82930;stroke-width:1.0;" width="6" x="428" y="344.6563"/><text fill="#000000" font-family="sans-serif" font-size="14" lengthAdjust="spacing" textLength="173" x="440" y="351.9531">void rotateClockwise(int,int)</text><rect fill="#F24D5C" height="6" style="stroke:#C82930;stroke-width:1.0;" width="6" x="428" y="363.2773"/><text fill="#000000" font-family="sans-serif" font-size="14" lengthAdjust="spacing" textLength="197" x="440" y="370.5742">void rotateAntiClockwise(int,int)</text><rect fill="#F24D5C" height="6" style="stroke:#C82930;stroke-width:1.0;" width="6" x="428" y="381.8984"/><text fill="#000000" font-family="sans-serif" font-size="14" lengthAdjust="spacing" textLength="184" x="440" y="389.1953">void addToSolution(Notation)</text><ellipse cx="431" cy="403.5195" fill="#84BE84" rx="3" ry="3" style="stroke:#038048;stroke-width:1.0;"/><text fill="#000000" font-family="sans-serif" font-size="14" lengthAdjust="spacing" textLength="153" x="440" y="407.8164">void call(String,boolean)</text><ellipse cx="431" cy="422.1406" fill="#84BE84" rx="3" ry="3" style="stroke:#038048;stroke-width:1.0;"/><text fill="#000000" font-family="sans-serif" font-size="14" lengthAdjust="spacing" textLength="113" x="440" y="426.4375">void call(Notation)</text><ellipse cx="431" cy="440.7617" fill="#84BE84" rx="3" ry="3" style="stroke:#038048;stroke-width:1.0;"/><text fill="#000000" font-family="sans-serif" font-size="14" lengthAdjust="spacing" textLength="168" x="440" y="445.0586">void call(Notation,boolean)</text><rect fill="#F24D5C" height="6" style="stroke:#C82930;stroke-width:1.0;" width="6" x="428" y="456.3828"/><text fill="#000000" font-family="sans-serif" font-size="14" lengthAdjust="spacing" textLength="184" x="440" y="463.6797">void rotateTo(int,int,Notation)</text><rect fill="#F24D5C" height="6" style="stroke:#C82930;stroke-width:1.0;" width="6" x="428" y="475.0039"/><text fill="#000000" font-family="sans-serif" font-size="14" lengthAdjust="spacing" textLength="74" x="440" y="482.3008">void cross()</text><rect fill="#F24D5C" height="6" style="stroke:#C82930;stroke-width:1.0;" width="6" x="428" y="493.625"/><text fill="#000000" font-family="sans-serif" font-size="14" lengthAdjust="spacing" textLength="81" x="440" y="500.9219">void corner()</text><rect fill="#F24D5C" height="6" style="stroke:#C82930;stroke-width:1.0;" width="6" x="428" y="512.2461"/><text fill="#000000" font-family="sans-serif" font-size="14" lengthAdjust="spacing" textLength="72" x="440" y="519.543">void edge()</text><rect fill="#F24D5C" height="6" style="stroke:#C82930;stroke-width:1.0;" width="6" x="428" y="530.8672"/><text fill="#000000" font-family="sans-serif" font-size="14" lengthAdjust="spacing" textLength="67" x="440" y="538.1641">void OLL()</text><rect fill="#F24D5C" height="6" style="stroke:#C82930;stroke-width:1.0;" width="6" x="428" y="549.4883"/><text fill="#000000" font-family="sans-serif" font-size="14" lengthAdjust="spacing" textLength="65" x="440" y="556.7852">void PLL()</text><rect fill="#F24D5C" height="6" style="stroke:#C82930;stroke-width:1.0;" width="6" x="428" y="568.1094"/><text fill="#000000" font-family="sans-serif" font-size="14" lengthAdjust="spacing" textLength="127" x="440" y="575.4063">boolean checkPLL()</text><rect fill="#F24D5C" height="6" style="stroke:#C82930;stroke-width:1.0;" width="6" x="428" y="586.7305"/><text fill="#000000" font-family="sans-serif" font-size="14" lengthAdjust="spacing" textLength="129" x="440" y="594.0273">boolean checkOLL()</text><rect fill="#F24D5C" height="6" style="stroke:#C82930;stroke-width:1.0;" width="6" x="428" y="605.3516"/><text fill="#000000" font-family="sans-serif" font-size="14" lengthAdjust="spacing" textLength="135" x="440" y="612.6484">boolean checkEdge()</text><ellipse cx="431" cy="626.9727" fill="#84BE84" rx="3" ry="3" style="stroke:#038048;stroke-width:1.0;"/><text fill="#000000" font-family="sans-serif" font-size="14" lengthAdjust="spacing" textLength="139" x="440" y="631.2695">boolean checkCross()</text><rect fill="#F24D5C" height="6" style="stroke:#C82930;stroke-width:1.0;" width="6" x="428" y="642.5938"/><text fill="#000000" font-family="sans-serif" font-size="14" lengthAdjust="spacing" textLength="146" x="440" y="649.8906">boolean checkCorner()</text><ellipse cx="431" cy="664.2148" fill="#84BE84" rx="3" ry="3" style="stroke:#038048;stroke-width:1.0;"/><text fill="#000000" font-family="sans-serif" font-size="14" lengthAdjust="spacing" textLength="209" x="440" y="668.5117">ArrayList&lt;Notation&gt; getSolution()</text><rect fill="#F24D5C" height="6" style="stroke:#C82930;stroke-width:1.0;" width="6" x="428" y="679.8359"/><text fill="#000000" font-family="sans-serif" font-size="14" lengthAdjust="spacing" textLength="181" x="440" y="687.1328">void unimportantPrint(String)</text><rect fill="#F24D5C" height="6" style="stroke:#C82930;stroke-width:1.0;" width="6" x="428" y="698.457"/><text fill="#000000" font-family="sans-serif" font-size="14" lengthAdjust="spacing" textLength="73" x="440" y="705.7539">void solve()</text><ellipse cx="431" cy="720.0781" fill="#84BE84" rx="3" ry="3" style="stroke:#038048;stroke-width:1.0;"/><text fill="#000000" font-family="sans-serif" font-size="14" lengthAdjust="spacing" textLength="214" x="440" y="724.375">ArrayList&lt;Notation&gt; mainSolving()</text><rect fill="#F24D5C" height="6" style="stroke:#C82930;stroke-width:1.0;" width="6" x="428" y="735.6992"/><text fill="#000000" font-family="sans-serif" font-size="14" lengthAdjust="spacing" textLength="142" x="440" y="742.9961">void optimizeSolution()</text><rect fill="#F24D5C" height="6" style="stroke:#C82930;stroke-width:1.0;" width="6" x="428" y="754.3203"/><text fill="#000000" font-family="sans-serif" font-size="14" lengthAdjust="spacing" textLength="303" x="440" y="761.6172">boolean handleReplace(ArrayList&lt;Notation&gt;,int)</text><ellipse cx="431" cy="775.9414" fill="#84BE84" rx="3" ry="3" style="stroke:#038048;stroke-width:1.0;"/><text fill="#000000" font-family="sans-serif" font-size="14" lengthAdjust="spacing" textLength="271" x="440" y="780.2383">void mainSolving(String[],boolean,boolean)</text><ellipse cx="431" cy="794.5625" fill="#84BE84" rx="3" ry="3" style="stroke:#038048;stroke-width:1.0;"/><text fill="#000000" font-family="sans-serif" font-size="14" lengthAdjust="spacing" textLength="135" x="440" y="798.8594">void printRubik(int[][])</text><rect fill="#F24D5C" height="6" style="stroke:#C82930;stroke-width:1.0;" width="6" x="428" y="810.1836"/><text fill="#000000" font-family="sans-serif" font-size="14" lengthAdjust="spacing" textLength="211" x="440" y="817.4805">void unimportantPrintRubik(int[][])</text><ellipse cx="431" cy="831.8047" fill="#84BE84" rx="3" ry="3" style="stroke:#038048;stroke-width:1.0;"/><text fill="#000000" font-family="sans-serif" font-size="14" lengthAdjust="spacing" text-decoration="underline" textLength="115" x="440" y="836.1016">void main(String[])</text><rect fill="#F24D5C" height="6" style="stroke:#C82930;stroke-width:1.0;" width="6" x="428" y="847.4258"/><text fill="#000000" font-family="sans-serif" font-size="14" lengthAdjust="spacing" textLength="154" x="440" y="854.7227">String solutionToString()</text></g><!--class InvalidRubikNotation--><g id="elem_InvalidRubikNotation"><rect codeLine="44" fill="#F1F1F1" height="85.2422" id="InvalidRubikNotation" rx="2.5" ry="2.5" style="stroke:#181818;stroke-width:0.5;" width="264" x="46" y="922.0137"/><ellipse cx="109.75" cy="938.0137" fill="#ADD1B2" rx="11" ry="11" style="stroke:#181818;stroke-width:1.0;"/><path d="M112.5156,933.8887 Q112.6719,933.6699 112.8594,933.5605 Q113.0469,933.4512 113.2656,933.4512 Q113.6406,933.4512 113.875,933.7168 Q114.1094,933.9668 114.1094,934.5762 L114.1094,936.0293 Q114.1094,936.6387 113.875,936.9043 Q113.6406,937.1699 113.2656,937.1699 Q112.9219,937.1699 112.7188,936.9668 Q112.5156,936.7793 112.4063,936.2637 Q112.3594,935.9043 112.1719,935.7168 Q111.8438,935.3418 111.2344,935.123 Q110.625,934.9043 110,934.9043 Q109.2344,934.9043 108.5938,935.2324 Q107.9688,935.5605 107.4688,936.3105 Q106.9844,937.0605 106.9844,938.0918 L106.9844,939.1855 Q106.9844,940.4199 107.875,941.248 Q108.7656,942.0605 110.3594,942.0605 Q111.2969,942.0605 111.9531,941.8105 Q112.3438,941.6543 112.7656,941.2168 Q113.0313,940.9512 113.1719,940.873 Q113.3281,940.7949 113.5313,940.7949 Q113.8594,940.7949 114.1094,941.0605 Q114.375,941.3105 114.375,941.6543 Q114.375,941.998 114.0313,942.4043 Q113.5313,942.9824 112.7344,943.3105 Q111.6563,943.7637 110.3594,943.7637 Q108.8438,943.7637 107.6406,943.1387 Q106.6563,942.6387 105.9688,941.5762 Q105.2813,940.498 105.2813,939.2168 L105.2813,938.0605 Q105.2813,936.7324 105.8906,935.5918 Q106.5156,934.4355 107.6094,933.8262 Q108.7031,933.2012 109.9375,933.2012 Q110.6719,933.2012 111.3125,933.373 Q111.9688,933.5293 112.5156,933.8887 Z " fill="#000000"/><text fill="#000000" font-family="sans-serif" font-size="14" lengthAdjust="spacing" textLength="128" x="130.25" y="943.8105">InvalidRubikNotation</text><line style="stroke:#181818;stroke-width:0.5;" x1="47" x2="309" y1="954.0137" y2="954.0137"/><line style="stroke:#181818;stroke-width:0.5;" x1="47" x2="309" y1="962.0137" y2="962.0137"/><ellipse cx="57" cy="976.8242" fill="#84BE84" rx="3" ry="3" style="stroke:#038048;stroke-width:1.0;"/><text fill="#000000" font-family="sans-serif" font-size="14" lengthAdjust="spacing" textLength="238" x="66" y="981.1211">&#171;Create&#187; InvalidRubikNotation(String)</text><ellipse cx="57" cy="995.4453" fill="#84BE84" rx="3" ry="3" style="stroke:#038048;stroke-width:1.0;"/><text fill="#000000" font-family="sans-serif" font-size="14" lengthAdjust="spacing" textLength="201" x="66" y="999.7422">&#171;Create&#187; InvalidRubikNotation()</text></g><!--class Notation--><g id="elem_Notation"><rect codeLine="49" fill="#F1F1F1" height="383.1797" id="Notation" rx="2.5" ry="2.5" style="stroke:#181818;stroke-width:0.5;" width="210" x="175" y="283.5137"/><ellipse cx="249.75" cy="299.5137" fill="#EB937F" rx="11" ry="11" style="stroke:#181818;stroke-width:1.0;"/><path d="M248.6094,300.3105 L248.6094,302.8105 L252.9375,302.8105 L252.9375,301.8887 Q252.9375,301.2793 253.1719,301.0137 Q253.4219,300.748 253.7969,300.748 Q254.1719,300.748 254.4063,301.0137 Q254.6406,301.2793 254.6406,301.8887 L254.6406,304.5137 L246.6406,304.5137 Q246.0156,304.5137 245.75,304.2793 Q245.5,304.0449 245.5,303.6543 Q245.5,303.2793 245.7656,303.0449 Q246.0313,302.8105 246.6406,302.8105 L246.9063,302.8105 L246.9063,296.1543 L246.6406,296.1543 Q246.0156,296.1543 245.75,295.9199 Q245.5,295.6855 245.5,295.2949 Q245.5,294.9199 245.75,294.6855 Q246.0156,294.4512 246.6406,294.4512 L254.2656,294.4512 L254.2656,297.0449 Q254.2656,297.6543 254.0313,297.9199 Q253.8125,298.1699 253.4219,298.1699 Q253.0469,298.1699 252.8125,297.9199 Q252.5781,297.6543 252.5781,297.0449 L252.5781,296.1543 L248.6094,296.1543 L248.6094,298.6074 L250.0938,298.6074 Q250.0938,297.9512 250.2188,297.7637 Q250.4844,297.3574 250.9531,297.3574 Q251.3281,297.3574 251.5625,297.623 Q251.7969,297.873 251.7969,298.4824 L251.7969,300.4512 Q251.7969,300.998 251.6719,301.1855 Q251.4063,301.5762 250.9531,301.5762 Q250.4844,301.5762 250.2188,301.1699 Q250.0938,300.9824 250.0938,300.3105 L248.6094,300.3105 Z " fill="#000000"/><text fill="#000000" font-family="sans-serif" font-size="14" lengthAdjust="spacing" textLength="52" x="270.25" y="305.3105">Notation</text><line style="stroke:#181818;stroke-width:0.5;" x1="176" x2="384" y1="315.5137" y2="315.5137"/><ellipse cx="186" cy="330.3242" fill="none" rx="3" ry="3" style="stroke:#038048;stroke-width:1.0;"/><text fill="#000000" font-family="sans-serif" font-size="14" lengthAdjust="spacing" textLength="10" x="195" y="334.6211">R</text><ellipse cx="186" cy="348.9453" fill="none" rx="3" ry="3" style="stroke:#038048;stroke-width:1.0;"/><text fill="#000000" font-family="sans-serif" font-size="14" lengthAdjust="spacing" textLength="18" x="195" y="353.2422">R_</text><ellipse cx="186" cy="367.5664" fill="none" rx="3" ry="3" style="stroke:#038048;stroke-width:1.0;"/><text fill="#000000" font-family="sans-serif" font-size="14" lengthAdjust="spacing" textLength="8" x="195" y="371.8633">L</text><ellipse cx="186" cy="386.1875" fill="none" rx="3" ry="3" style="stroke:#038048;stroke-width:1.0;"/><text fill="#000000" font-family="sans-serif" font-size="14" lengthAdjust="spacing" textLength="16" x="195" y="390.4844">L_</text><ellipse cx="186" cy="404.8086" fill="none" rx="3" ry="3" style="stroke:#038048;stroke-width:1.0;"/><text fill="#000000" font-family="sans-serif" font-size="14" lengthAdjust="spacing" textLength="9" x="195" y="409.1055">F</text><ellipse cx="186" cy="423.4297" fill="none" rx="3" ry="3" style="stroke:#038048;stroke-width:1.0;"/><text fill="#000000" font-family="sans-serif" font-size="14" lengthAdjust="spacing" textLength="17" x="195" y="427.7266">F_</text><ellipse cx="186" cy="442.0508" fill="none" rx="3" ry="3" style="stroke:#038048;stroke-width:1.0;"/><text fill="#000000" font-family="sans-serif" font-size="14" lengthAdjust="spacing" textLength="9" x="195" y="446.3477">B</text><ellipse cx="186" cy="460.6719" fill="none" rx="3" ry="3" style="stroke:#038048;stroke-width:1.0;"/><text fill="#000000" font-family="sans-serif" font-size="14" lengthAdjust="spacing" textLength="17" x="195" y="464.9688">B_</text><ellipse cx="186" cy="479.293" fill="none" rx="3" ry="3" style="stroke:#038048;stroke-width:1.0;"/><text fill="#000000" font-family="sans-serif" font-size="14" lengthAdjust="spacing" textLength="9" x="195" y="483.5898">U</text><ellipse cx="186" cy="497.9141" fill="none" rx="3" ry="3" style="stroke:#038048;stroke-width:1.0;"/><text fill="#000000" font-family="sans-serif" font-size="14" lengthAdjust="spacing" textLength="17" x="195" y="502.2109">U_</text><ellipse cx="186" cy="516.5352" fill="none" rx="3" ry="3" style="stroke:#038048;stroke-width:1.0;"/><text fill="#000000" font-family="sans-serif" font-size="14" lengthAdjust="spacing" textLength="10" x="195" y="520.832">D</text><ellipse cx="186" cy="535.1563" fill="none" rx="3" ry="3" style="stroke:#038048;stroke-width:1.0;"/><text fill="#000000" font-family="sans-serif" font-size="14" lengthAdjust="spacing" textLength="18" x="195" y="539.4531">D_</text><rect fill="none" height="6" style="stroke:#C82930;stroke-width:1.0;" width="6" x="183" y="550.7773"/><text fill="#000000" font-family="sans-serif" font-size="14" lengthAdjust="spacing" textLength="116" x="195" y="558.0742">boolean isInverted</text><rect fill="none" height="6" style="stroke:#C82930;stroke-width:1.0;" width="6" x="183" y="569.3984"/><text fill="#000000" font-family="sans-serif" font-size="14" lengthAdjust="spacing" textLength="162" x="195" y="576.6953">Notation oppositeNotation</text><line style="stroke:#181818;stroke-width:0.5;" x1="176" x2="384" y1="584.209" y2="584.209"/><polygon fill="#4177AF" points="186,595.0195,182,601.0195,190,601.0195" style="stroke:#1963A0;stroke-width:1.0;"/><text fill="#000000" font-family="sans-serif" font-size="14" lengthAdjust="spacing" textLength="176" x="195" y="603.3164">&#171;Create&#187; Notation(boolean)</text><ellipse cx="186" cy="617.6406" fill="#84BE84" rx="3" ry="3" style="stroke:#038048;stroke-width:1.0;"/><text fill="#000000" font-family="sans-serif" font-size="14" lengthAdjust="spacing" textLength="126" x="195" y="621.9375">boolean isInverted()</text><ellipse cx="186" cy="636.2617" fill="#84BE84" rx="3" ry="3" style="stroke:#038048;stroke-width:1.0;"/><text fill="#000000" font-family="sans-serif" font-size="14" lengthAdjust="spacing" textLength="184" x="195" y="640.5586">boolean isOpposite(Notation)</text><ellipse cx="186" cy="654.8828" fill="#84BE84" rx="3" ry="3" style="stroke:#038048;stroke-width:1.0;"/><text fill="#000000" font-family="sans-serif" font-size="14" lengthAdjust="spacing" textLength="105" x="195" y="659.1797">Notation toggle()</text></g><!--class Exception--><g id="elem_Exception"><rect fill="#F1F1F1" height="48" id="Exception" rx="2.5" ry="2.5" style="stroke:#181818;stroke-width:0.5;" width="93" x="46.5" y="451.0137"/><ellipse cx="61.5" cy="467.0137" fill="#ADD1B2" rx="11" ry="11" style="stroke:#181818;stroke-width:1.0;"/><path d="M64.2656,462.8887 Q64.4219,462.6699 64.6094,462.5605 Q64.7969,462.4512 65.0156,462.4512 Q65.3906,462.4512 65.625,462.7168 Q65.8594,462.9668 65.8594,463.5762 L65.8594,465.0293 Q65.8594,465.6387 65.625,465.9043 Q65.3906,466.1699 65.0156,466.1699 Q64.6719,466.1699 64.4688,465.9668 Q64.2656,465.7793 64.1563,465.2637 Q64.1094,464.9043 63.9219,464.7168 Q63.5938,464.3418 62.9844,464.123 Q62.375,463.9043 61.75,463.9043 Q60.9844,463.9043 60.3438,464.2324 Q59.7188,464.5605 59.2188,465.3105 Q58.7344,466.0605 58.7344,467.0918 L58.7344,468.1855 Q58.7344,469.4199 59.625,470.248 Q60.5156,471.0605 62.1094,471.0605 Q63.0469,471.0605 63.7031,470.8105 Q64.0938,470.6543 64.5156,470.2168 Q64.7813,469.9512 64.9219,469.873 Q65.0781,469.7949 65.2813,469.7949 Q65.6094,469.7949 65.8594,470.0605 Q66.125,470.3105 66.125,470.6543 Q66.125,470.998 65.7813,471.4043 Q65.2813,471.9824 64.4844,472.3105 Q63.4063,472.7637 62.1094,472.7637 Q60.5938,472.7637 59.3906,472.1387 Q58.4063,471.6387 57.7188,470.5762 Q57.0313,469.498 57.0313,468.2168 L57.0313,467.0605 Q57.0313,465.7324 57.6406,464.5918 Q58.2656,463.4355 59.3594,462.8262 Q60.4531,462.2012 61.6875,462.2012 Q62.4219,462.2012 63.0625,462.373 Q63.7188,462.5293 64.2656,462.8887 Z " fill="#000000"/><text fill="#000000" font-family="sans-serif" font-size="14" lengthAdjust="spacing" textLength="61" x="75.5" y="472.8105">Exception</text><line style="stroke:#181818;stroke-width:0.5;" x1="47.5" x2="138.5" y1="483.0137" y2="483.0137"/><line style="stroke:#181818;stroke-width:0.5;" x1="47.5" x2="138.5" y1="491.0137" y2="491.0137"/></g><!--reverse link Exception to InvalidRubikNotation--><g id="link_Exception_InvalidRubikNotation"><path codeLine="73" d="M99.4908,516.8897 C109.0408,576.8597 132.9,724.6337 158,862.0137 C161.58,881.6237 165.82,903.3137 169.47,921.5837 " fill="none" id="Exception-backto-InvalidRubikNotation" style="stroke:#181818;stroke-width:1.0;"/><polygon fill="none" points="96.66,499.1137,93.5654,517.8333,105.4161,515.9461,96.66,499.1137" style="stroke:#181818;stroke-width:1.0;"/></g><!--SRC=[XLJDRk8m4Bxp53wc2l0428cbhOIMRYhAdgggSkqXjGXsP1kstMxtsNSoSPna2UfbCfxVRtuoek3ECM4Eqpo_tMJPz-dc-ABsnBAFqOGjhENlQ-Nyx8Vnt2kZvyoPubXng5RQFpuzFZ6fB8XAvb3OMA9ynmLiJIFeEDWg3RvVZ2c0QoR1SrNSMzHd9TccKIVCKVixSm8NL1Dsnyi8Q8oFwOtszdssqXvoiEFmdSy9m4BBQsMpNOIHHXWvU2eukKBXoIY96XL519Vjb9OhBU4j8QynqgjE9S82zx0iZ0RPEb8iMoMiL6B_Ipce_1llZdwXlRfimwNSceVGyQGf8S8Ll2YI1uzzoyUXNttTi4ViNVJfGTgQ1iUuzGyMmXhdsXg5iHfi-mQPG_lArklsSHyUSQwl8FQ3mcn8U5D7JllIPOJJ5pUmqi4Lnhd7daPyHwqEfR6UQq-B6FeQzRZt9xWOyi2LnfWdz6X36bpOW_eDlMGDq5UkPG4RA0jSqcGWPhq8OMxT-3KmtCKGwcpqPOM_tiQmfnUh_CygPH-kIYy-sxGnNnMavkCHmEKa0LRsEHgDnDb1MUaJBrJzQpILuMb9sMosf5y7_z8XczZzhoqfDUZZePUubunjY3nNT4s4s5iYn7uZGknF8iHU4tdkJ4qvn03MW-oSEXnqQPpo46_CtoxgYBGpf_DuIL-SXP2zNpWcz2RF2mXTnxvt2hzv4q27ait-J2PV3kCV]--></g></svg>